<?xml version="1.0" encoding="UTF-8"?>
<svg width="352px" height="28px" viewBox="0 0 352 28" version="1.1" xmlns="http://www.w3.org/2000/svg" xmlns:xlink="http://www.w3.org/1999/xlink">
    <!-- Generator: Sketch 59.1 (86144) - https://sketch.com -->
    <title>网站运营资源替换后台</title>
    <desc>Created with Sketch.</desc>
    <g id="页面-1" stroke="none" stroke-width="1" fill="none" fill-rule="evenodd">
        <g id="1.登录" transform="translate(-783.000000, -392.000000)" fill="#000000" fill-rule="nonzero">
            <g id="Group" transform="translate(622.000000, 352.000000)">
                <path d="M176.348,46.588 C176.155999,47.6680054 175.892002,48.7299948 175.556,49.774 C175.219998,50.8180052 174.884002,51.7599958 174.548,52.6 C174.139998,53.5600048 173.720002,54.4839956 173.288,55.372 C173.648002,55.9480029 174.049998,56.5239971 174.494,57.1 C174.938002,57.6760029 175.423997,58.2399972 175.952,58.792 L175.952,63.076 C175.015995,62.4519969 174.164004,61.7560038 173.396,60.988 C172.627996,60.2199962 171.932003,59.4160042 171.308,58.576 C170.683997,59.4160042 169.988004,60.2199962 169.22,60.988 C168.451996,61.7560038 167.588005,62.4519969 166.628,63.076 L166.628,58.792 C167.180003,58.2399972 167.671998,57.6760029 168.104,57.1 C168.536002,56.5239971 168.943998,55.9480029 169.328,55.372 C168.895998,54.4839956 168.476002,53.5600048 168.068,52.6 C167.731998,51.7599958 167.396002,50.8180052 167.06,49.774 C166.723998,48.7299948 166.460001,47.6680054 166.268,46.588 L169.688,46.588 C169.784,47.1400028 169.921999,47.715997 170.102,48.316 C170.282001,48.916003 170.467999,49.4559976 170.66,49.936 L171.092,51.0719994 C171.164,51.2586658 171.236,51.4439991 171.308,51.628 L171.524,51.0719994 L171.524,51.0719994 L171.956,49.936 C172.148001,49.4559976 172.327999,48.916003 172.496,48.316 C172.664001,47.715997 172.796,47.1400028 172.892,46.588 L176.348,46.588 Z M177.32,58.792 C177.848003,58.2399972 178.333998,57.6760029 178.778,57.1 C179.222002,56.5239971 179.623998,55.9480029 179.984,55.372 C179.551998,54.4839956 179.132002,53.5600048 178.724,52.6 C178.387998,51.7599958 178.052002,50.8180052 177.716,49.774 C177.379998,48.7299948 177.116001,47.6680054 176.924,46.588 L180.38,46.588 C180.476,47.1400028 180.607999,47.715997 180.776,48.316 C180.944001,48.916003 181.123999,49.4559976 181.316,49.936 L181.748,51.0719994 C181.82,51.2586658 181.892,51.4439991 181.964,51.628 C182.124001,51.2599982 182.278667,50.8866667 182.428,50.5080007 L182.648,49.936 C182.840001,49.4559976 183.019999,48.916003 183.188,48.316 C183.356001,47.715997 183.488,47.1400028 183.584,46.588 L187.004,46.588 C186.811999,47.6680054 186.548002,48.7299948 186.212,49.774 C185.875998,50.8180052 185.540002,51.7599958 185.204,52.6 C184.795998,53.5600048 184.376002,54.4839956 183.944,55.372 C184.328002,55.9480029 184.735998,56.5239971 185.168,57.1 C185.600002,57.6760029 186.091997,58.2399972 186.644,58.792 L186.644,63.076 C185.707995,62.4519969 184.850004,61.7560038 184.07,60.988 C183.289996,60.2199962 182.588003,59.4160042 181.964,58.576 C181.339997,59.4160042 180.644004,60.2199962 179.876,60.988 C179.107996,61.7560038 178.256005,62.4519969 177.32,63.076 L177.32,58.792 Z M192.764,63.076 C192.764,63.6280028 192.662001,64.1379977 192.458,64.606 C192.253999,65.0740023 191.972002,65.4879982 191.612,65.848 C191.251998,66.2080018 190.832002,66.489999 190.352,66.694 C189.871998,66.898001 189.356003,67 188.804,67 L184.736,67 L186.212,63.436 L186.968,63.436 C187.304002,63.436 187.579999,63.3280011 187.796,63.112 C188.012001,62.8959989 188.12,62.6320016 188.12,62.32 L188.12,45.724 C188.12,45.4119984 188.012001,45.1480011 187.796,44.932 C187.579999,44.7159989 187.304002,44.608 186.968,44.608 L165.764,44.608 L165.764,67 L161.12,67 L161.12,41.044 L188.804,41.044 C189.356003,41.044 189.871998,41.145999 190.352,41.35 C190.832002,41.554001 191.251998,41.8359982 191.612,42.196 C191.972002,42.5560018 192.253999,42.9759976 192.458,43.456 C192.662001,43.9360024 192.764,44.4519972 192.764,45.004 L192.764,63.076 Z M228.104,63.04 C228.104,63.5920028 228.002001,64.1079976 227.798,64.588 C227.593999,65.0680024 227.312002,65.4879982 226.952,65.848 C226.591998,66.2080018 226.172002,66.489999 225.692,66.694 C225.211998,66.898001 224.708003,67 224.18,67 L212.588,67 L212.588,53.14 L217.268,53.14 L217.268,41.224 L222.272,41.224 L222.272,44.104 L228.32,44.104 L228.32,47.668 L222.272,47.668 L222.272,53.14 L228.104,53.14 L228.104,63.04 Z M222.776,56.704 L217.916,56.704 L217.916,63.436 L221.66,63.436 C221.972002,63.436 222.235999,63.3280011 222.452,63.112 C222.668001,62.8959989 222.776,62.6320016 222.776,62.32 L222.776,56.704 Z M211.508,46.3 L196.64,46.3 L196.64,43.348 L201.644,43.348 L200.708,41.008 L206.108,41.008 L207.08,43.348 L211.508,43.348 L211.508,46.3 Z M211.508,67.072 L196.64,67.072 L196.64,64.084 L199.34,64.084 L197.972,48.136 L202.256,48.136 L203.624,64.084 L204.524,64.084 L205.892,48.136 L210.176,48.136 L208.808,64.084 L211.508,64.084 L211.508,67.072 Z M261.464,42.196 L261.464,45.76 L242.996,45.76 L242.996,42.196 L261.464,42.196 Z M232.304,67.036 L235.292,57.748 L232.304,57.748 L232.376,57.604 L235.4,49.792 L232.304,49.792 L232.304,46.48 L240.26,46.48 L237.2,54.436 L239.648,54.436 L238.028,60.376 L240.656,63.76 L263.66,63.76 L263.66,67.036 L238.064,67.036 L236.66,65.308 L236.156,67.036 L232.304,67.036 Z M232.34,41.008 L237.092,41.008 L239.576,45.4 L234.824,45.4 L232.34,41.008 Z M241.844,61.672 L245.192,52.312 L241.844,52.312 L241.844,48.748 L262.508,48.748 L262.508,52.312 L249.944,52.312 L247.856,58.108 L256.532,58.108 L255.668,54.904 L260.42,54.904 L262.508,62.464 L257.72,62.464 L257.504,61.672 L241.844,61.672 Z M287.876,45.22 L288.344,44.356 L278.696,44.356 L279.164,45.22 L273.98,45.22 L273.512,44.356 L267.716,44.356 L267.716,41.836 L272.144,41.836 L271.676,40.972 L276.86,40.972 L277.328,41.836 L289.712,41.836 L290.18,40.972 L295.364,40.972 L294.86,41.836 L299.324,41.836 L299.324,44.356 L293.492,44.356 L293.024,45.22 L287.876,45.22 Z M298.208,63.112 C298.208,63.6640028 298.106001,64.1799976 297.902,64.66 C297.697999,65.1400024 297.416002,65.5599982 297.056,65.92 C296.695998,66.2800018 296.276002,66.561999 295.796,66.766 C295.315998,66.970001 294.800003,67.072 294.248,67.072 L268.832,67.072 L268.832,58.9 L298.208,58.9 L298.208,63.112 Z M291.764,61.672 L275.24,61.672 L275.24,64.3 L290.072,64.3 C290.552002,64.3 290.953998,64.1380016 291.278,63.814 C291.602002,63.4899984 291.764,63.0880024 291.764,62.608 L291.764,61.672 Z M270.02,50.692 L267.572,50.692 L267.572,46.012 L295.904,46.012 C297.008006,46.012 297.877997,46.2639975 298.514,46.768 C299.150003,47.2720025 299.468,48.0639946 299.468,49.144 L299.468,50.692 L296.984,50.692 L296.984,53.932 C296.984,54.940005 296.642003,55.7919965 295.958,56.488 C295.273997,57.1840035 294.428005,57.532 293.42,57.532 L270.02,57.532 L270.02,50.692 Z M290.576,53.068 L276.428,53.068 L276.428,54.76 L289.28,54.76 C289.640002,54.76 289.945999,54.6280013 290.198,54.364 C290.450001,54.0999987 290.576,53.7880018 290.576,53.428 L290.576,53.068 Z M272.144,48.748 L272.144,50.296 L294.86,50.296 L294.86,49.9 C294.86,49.5639983 294.752001,49.2880011 294.536,49.072 C294.319999,48.8559989 294.056002,48.748 293.744,48.748 L272.144,48.748 Z M303.164,66.964 L315.728,60.484 L315.728,57.676 L322.028,57.676 L322.028,60.232 L325.484,60.232 L328.94,62.716 L328.94,58.396 C328.94,58.0839984 328.832001,57.8140011 328.616,57.586 C328.399999,57.3579989 328.136002,57.244 327.824,57.244 L309.536,57.244 L309.536,62.752 L304.532,62.752 L304.532,54.04 L329.984,54.04 C330.536003,54.04 331.051998,54.141999 331.532,54.346 C332.012002,54.550001 332.431998,54.8319982 332.792,55.192 C333.152002,55.5520018 333.433999,55.9719976 333.638,56.452 C333.842001,56.9320024 333.944,57.4479972 333.944,58 L333.944,62.752 L328.976,62.752 L334.88,66.964 L327.212,66.964 L321.38,62.428 L312.74,66.964 L303.164,66.964 Z M306.404,46.876 L311.408,46.876 L309.032,52.996 L304.028,52.996 L306.404,46.876 Z M311.408,45.58 L306.404,45.58 L304.1,41.152 L309.068,41.152 L311.408,45.58 Z M334.844,42.124 L332.828,47.668 L328.112,47.668 L329.048,45.436 L312.38,45.436 L314.396,41.08 L319.724,41.08 L319.292,42.124 L334.844,42.124 Z M325.736,47.74 L323.864,49.072 L327.968,49.072 L334.376,52.996 L327.392,52.996 L322.82,49.792 L318.248,52.996 L311.768,52.996 L319.328,47.74 L319.328,46.264 L325.736,46.264 L325.736,47.74 Z M353.696,59.296 L357.836,59.296 L356.792,66.892 L352.652,66.892 L353.696,59.296 Z M366.188,66.892 L365.18,59.296 L369.32,59.296 L370.328,66.892 L366.188,66.892 Z M338.756,67 L342.068,56.74 L347.432,56.74 L344.084,67 L338.756,67 Z M338.756,46.984 L341.204,46.984 L338.756,41.044 L344.084,41.044 L347.432,49.108 L344.984,49.108 L347.432,55.048 L342.068,55.048 L338.756,46.984 Z M370.364,44.104 L352.508,44.104 L352.508,63.436 L350.924,67 L345.992,67 L347.576,63.436 L347.576,41.044 L370.364,41.044 L370.364,44.104 Z M363.956,63.076 C363.956,63.6280028 363.854001,64.1379977 363.65,64.606 C363.445999,65.0740023 363.164002,65.4879982 362.804,65.848 C362.443998,66.2080018 362.024002,66.489999 361.544,66.694 C361.063998,66.898001 360.548003,67 359.996,67 L356.972,67 L358.16,64.516 L358.376,64.516 C358.568001,64.516 358.729999,64.4500007 358.862,64.318 C358.994001,64.1859993 359.06,64.024001 359.06,63.832 L359.06,58.324 L353.3,58.324 L353.3,46.228 L358.952,46.228 L359.384,45.076 L364.82,45.076 L364.388,46.228 L369.716,46.228 L369.716,54.58 C369.716,55.6840055 369.380003,56.5839965 368.708,57.28 C368.035997,57.9760035 367.172005,58.324 366.116,58.324 L363.956,58.324 L363.956,63.076 Z M358.16,48.748 L358.16,51.016 L364.784,51.016 L364.784,48.748 L358.16,48.748 Z M358.16,55.696 L363.668,55.696 C363.980002,55.696 364.243999,55.5880011 364.46,55.372 C364.676001,55.1559989 364.784,54.8800017 364.784,54.544 L364.784,53.284 L358.16,53.284 L358.16,55.696 Z M405.164,63.112 C405.164,63.6640028 405.062001,64.1799976 404.858,64.66 C404.653999,65.1400024 404.372002,65.5599982 404.012,65.92 C403.651998,66.2800018 403.232002,66.561999 402.752,66.766 C402.271998,66.970001 401.756003,67.072 401.204,67.072 L374.996,67.072 L374.996,55.948 L405.164,55.948 L405.164,63.112 Z M380,59.008 L380,60.052 L400.16,60.052 L400.16,59.008 L380,59.008 Z M399.044,64.012 C399.308001,64.012 399.547999,63.9220009 399.764,63.742 C399.980001,63.5619991 400.112,63.3400013 400.16,63.076 L380,63.076 L380,64.012 L399.044,64.012 Z M374.276,47.884 L379.532,47.884 L379.532,45.76 L374.672,45.76 L374.672,42.844 L379.532,42.844 L379.532,40.972 L384.5,40.972 L384.5,42.844 L389.324,42.844 L389.324,45.76 L384.5,45.76 L384.5,47.884 L389.72,47.884 L389.72,50.8 L386.192,50.8 L389.684,55.192 L384.392,55.192 L382.232,52.492 L379.964,55.192 L374.312,55.192 L378.128,50.8 L374.276,50.8 L374.276,47.884 Z M400.628,40.972 L400.628,42.844 L405.452,42.844 L405.452,45.76 L400.628,45.76 L400.628,47.884 L405.848,47.884 L405.848,50.8 L402.32,50.8 L405.812,55.192 L400.52,55.192 L398.36,52.492 L396.092,55.192 L390.44,55.192 L394.256,50.8 L390.404,50.8 L390.404,47.884 L395.66,47.884 L395.66,45.76 L390.8,45.76 L390.8,42.844 L395.66,42.844 L395.66,40.972 L400.628,40.972 Z M409.796,43.492 L412.496,43.492 L412.496,41.044 L417.464,41.044 L417.464,43.492 L419.624,43.492 L419.624,47.056 L417.464,47.056 L417.464,51.628 L419.948,51.628 L417.464,57.1 L417.464,63.04 C417.464,63.5920028 417.362001,64.1079976 417.158,64.588 C416.953999,65.0680024 416.672002,65.4879982 416.312,65.848 C415.951998,66.2080018 415.532002,66.489999 415.052,66.694 C414.571998,66.898001 414.068003,67 413.54,67 L409.868,67 L411.236,63.904 L411.344,63.904 C411.680002,63.904 411.955999,63.7960011 412.172,63.58 C412.388001,63.3639989 412.496,63.1000016 412.496,62.788 L412.496,60.664 L409.868,60.664 L412.496,54.868 L412.496,47.056 L409.796,47.056 L409.796,43.492 Z M427.868,42.592 L439.928,42.592 L437.66,48.136 C438.476004,48.2560006 439.153997,48.6339968 439.694,49.27 C440.234003,49.9060032 440.504,50.6439958 440.504,51.484 L440.504,56.524 L441.404,56.524 L441.404,59.692 L432.116,59.692 L425.744,67 L419.624,67 L425.96,59.692 L419.012,59.692 L419.012,56.524 L420.38,56.524 L420.38,48.1 L432.98,48.1 L433.916,46.156 L420.956,46.156 L423.26,41.044 L428.588,41.044 L427.868,42.592 Z M425.348,56.524 L428.048,56.524 L428.048,51.268 L425.348,51.268 L425.348,56.524 Z M435.536,56.524 L435.536,52.384 C435.536,52.0719984 435.422001,51.8080011 435.194,51.592 C434.965999,51.3759989 434.696002,51.268 434.384,51.268 L432.836,51.268 L432.836,56.524 L435.536,56.524 Z M431.144,60.952 L436.76,60.952 L441.404,67 L435.572,67 L431.144,60.952 Z M474.944,63.04 C474.944,63.5920028 474.842001,64.1079976 474.638,64.588 C474.433999,65.0680024 474.152002,65.4879982 473.792,65.848 C473.431998,66.2080018 473.012002,66.489999 472.532,66.694 C472.051998,66.898001 471.536003,67 470.984,67 L454.172,67 L454.172,52.312 L474.944,52.312 L474.944,63.04 Z M469.94,55.444 L459.176,55.444 L459.176,63.868 L468.824,63.868 C469.136002,63.868 469.399999,63.7600011 469.616,63.544 C469.832001,63.3279989 469.94,63.0520017 469.94,62.716 L469.94,55.444 Z M476.96,44.572 L452.048,44.572 L452.048,63.148 L450.284,67.072 L445.28,67.072 L447.044,63.148 L447.044,41.008 L476.96,41.008 L476.96,44.572 Z M453.956,46.48 L475.16,46.48 L475.16,50.08 L453.956,50.08 L453.956,46.48 Z M511.112,63.4 C511.112,63.8800024 511.022001,64.324 510.842,64.732 C510.661999,65.140002 510.422002,65.4939985 510.122,65.794 C509.821999,66.0940015 509.462002,66.3339991 509.042,66.514 C508.621998,66.6940009 508.184002,66.784 507.728,66.784 L481.772,66.784 L481.772,53.824 L511.112,53.824 L511.112,63.4 Z M505.856,57.352 L487.028,57.352 L487.028,63.292 L504.74,63.292 C505.052002,63.292 505.315999,63.1840011 505.532,62.968 C505.748001,62.7519989 505.856,62.4760017 505.856,62.14 L505.856,57.352 Z M481.196,52.096 L488.144,41.26 L493.22,41.26 L488.54,48.568 L504.668,48.568 L501.14,42.7 L505.964,42.7 L512.084,52.924 L507.296,52.924 L506.792,52.096 L481.196,52.096 Z" id="网站运营资源替换后台"></path>
            </g>
        </g>
    </g>
</svg>