<?xml version="1.0" encoding="UTF-8"?>
<svg width="50px" height="50px" viewBox="0 0 50 50" version="1.1" xmlns="http://www.w3.org/2000/svg" xmlns:xlink="http://www.w3.org/1999/xlink">
    <!-- Generator: Sketch 59.1 (86144) - https://sketch.com -->
    <title>logo</title>
    <desc>Created with Sketch.</desc>
    <defs>
        <polygon id="path-1" points="0 0.0351139825 32.3580311 0.0351139825 32.3580311 30.6799195 0 30.6799195"></polygon>
    </defs>
    <g id="logo" stroke="none" stroke-width="1" fill="none" fill-rule="evenodd">
        <g id="Group-18" transform="translate(9.000000, 2.000000)">
            <path d="M8.42119109,38.0669322 L9.75577149,38.0669322 L9.75577149,36.2486339 L8.42119109,36.2486339 L8.42119109,38.0669322 Z M10.6616605,39.7348464 L10.1456952,40.2514404 L8.42119109,40.2514404 L8.42119109,38.3151974 L9.75577149,38.3151974 L9.75577149,38.7744129 L10.7648536,38.7744129 L10.7663519,36.0009313 L10.7648536,36.0009313 L10.7648536,35.9992437 L10.7654155,35.9992437 L10.2603125,35.568905 L9.75577149,35.9992437 L9.75577149,36.0009313 L8.42119109,36.0009313 L8.42062924,34.4070842 L11.0581392,34.4070842 L11.0581392,34.1595691 L10.5399264,33.6427876 L10.0243357,34.1595691 L8.42062924,34.1595691 L8.42062924,34.158069 L8.42119109,34.158069 L7.90391476,33.7277302 L7.38701301,34.158069 L7.38776214,40.4980179 L7.38701301,40.4980179 L7.90391476,40.9283567 L8.41969282,40.499143 L11.1791241,40.499143 L11.1791241,40.2514404 L10.6616605,39.7348464 Z" id="Fill-1" fill="#FFFFFF"></path>
            <g id="Group-17" transform="translate(0.000000, 0.031502)">
                <path d="M7.23327219,40.1639851 C6.99804444,39.3162459 6.59688373,38.6254538 5.76253688,38.2588689 C5.83070798,37.9896025 5.88464555,37.7051477 5.92603515,37.4058795 L7.07295774,37.4058795 L7.07295774,37.1579893 L6.55493228,36.6415829 L6.03896695,37.1579893 L5.95749873,37.1579893 C6.02698082,36.5482022 6.05057851,35.880474 6.04140163,35.1572424 L7.07295774,35.1572424 L7.07295774,34.9093523 L6.55493228,34.3933208 L6.03896695,34.9093523 L4.9351195,34.9093523 C5.15105708,34.4887641 5.30893686,34.0167979 5.41175536,33.4919534 L4.34367902,33.3290059 C4.20714953,34.5701441 3.93371599,35.5737053 2.98849746,36.7299007 C3.79400269,36.3702538 4.38488133,35.8416591 4.79709175,35.1572424 L5.00684899,35.1572424 C5.0178987,35.9080381 5.02164436,36.5628281 4.98793338,37.1579893 L3.50127898,37.1579893 L3.50202812,37.4058795 L4.97107789,37.4058795 C4.86282817,38.793464 4.51092295,39.8654669 3.48854372,41.1154181 C4.67254839,40.5870109 5.34789177,39.6974566 5.70279352,38.4775073 C6.10020857,39.0901071 6.16631955,39.6995193 6.2004051,40.3863736 L7.23327219,40.1639851 Z" id="Fill-2" fill="#FFFFFF"></path>
                <polygon id="Fill-4" fill="#FFFFFF" points="18.0432049 34.8045334 20.4997992 34.8045334 20.4997992 34.5566433 19.9821483 34.0398618 19.466183 34.5566433 18.1443378 34.5566433 18.5243355 33.6286492 18.525272 33.6288367 18.1909714 33.0447386 17.5562684 33.2671272 17.0281297 34.5566433 16.3331216 34.5566433 16.3336834 34.8045334 16.9268095 34.8045334 15.9842129 37.1638022 16.928495 37.5256993 17.0447979 37.2414319 17.752354 37.2414319 17.752354 38.4925082 16.2619539 38.4925082 16.2628904 38.7403983 17.752354 38.7403983 17.752354 40.8774661 18.7854084 40.8774661 18.7854084 38.7403983 20.5608535 38.7403983 20.5608535 38.4925082 20.0428281 37.9761017 19.52705 38.4925082 18.7854084 38.4925082 18.7854084 37.2414319 20.5608535 37.2414319 20.5608535 36.9935418 20.0428281 36.4775104 19.52705 36.9935418 18.7854084 36.9935418 18.7854084 35.913476 18.7865321 35.913476 18.2692558 35.4835123 17.752354 35.913476 17.752354 36.9935418 17.1463054 36.9935418"></polygon>
                <path d="M16.1714774,33.8622134 L15.6532647,33.3454319 L15.1376739,33.8622134 L14.2235444,33.8622134 L14.2235444,33.8552755 L14.2241062,33.8552755 L13.7070172,33.4253118 L13.1901154,33.8552755 L13.1901154,40.8661404 L14.2235444,40.8661404 L14.2235444,34.1097285 L15.033919,34.1097285 L14.5544739,36.2895489 L14.6797664,36.4262447 C15.8647075,37.7630137 15.0371028,38.4104907 14.2565062,38.2936711 L14.8509432,39.3776746 C16.7646034,39.0875945 16.212867,36.9426512 14.8428901,36.1723543 L16.1714774,34.1097285 L16.1714774,33.8622134 Z" id="Fill-6" fill="#FFFFFF"></path>
                <polyline id="Fill-8" fill="#FFFFFF" points="22.6548675 34.0713262 28.3921024 34.0713262 28.3921024 33.814623 27.8549741 33.2787154 27.3202804 33.814623 22.6548675 33.814623"></polyline>
                <path d="M29.3667057,35.9523096 L29.3667057,35.6956065 L28.8299519,35.1596988 L28.295071,35.6956065 L21.6800395,35.6956065 L21.6800395,35.9523096 L23.998606,35.9523096 C24.0364373,40.0906869 21.6873435,40.7846667 21.6873435,40.7846667 C25.1234292,40.5602155 25.1406593,36.3781481 25.1333552,35.9523096 L25.7465206,35.9523096 L25.7382801,39.5592795 C25.7382801,39.5592795 25.7186154,40.6393453 26.7241391,40.6972863 L26.7265738,40.6972863 C26.729383,40.6976614 26.7318177,40.6980364 26.734627,40.6980364 L26.7361252,40.6972863 L28.1737114,40.6957862 L28.3709207,40.7030992 L28.378412,40.6957862 L28.3941438,40.6957862 L29.2975982,39.7878559 L29.2335473,39.092751 L28.5394756,39.0286221 L27.9442894,39.6249085 L27.2710062,39.6249085 C26.8902593,39.5956567 26.830516,39.2048829 26.8230246,39.1392539 C26.8177807,38.3588313 26.8247102,36.2093878 26.8256466,35.9523096 L29.3667057,35.9523096 Z" id="Fill-10" fill="#FFFFFF"></path>
                <g id="Group-14">
                    <mask id="mask-2" fill="white">
                        <use xlink:href="#path-1"></use>
                    </mask>
                    <g id="Clip-13"></g>
                    <path d="M18.9631589,27.9881929 L18.9468653,27.9109382 L18.7931057,28.006569 L18.9631589,27.9881929 Z M18.6327913,28.2186444 L18.7007751,28.0643225 L18.6846687,28.0742606 L18.4265924,27.9362522 L18.3106641,28.0853238 L18.3102895,28.0853238 L18.2810733,28.0815736 L18.3391311,28.1775794 L18.4114225,28.1233886 L18.6327913,28.2186444 Z M17.3367912,27.3911565 L17.3532721,27.4685987 L17.5074062,27.3727804 L17.3367912,27.3911565 Z M17.6682826,27.1605174 L17.6006733,27.3148393 L17.6158432,27.3049012 L17.8731704,27.4430972 L17.9894733,27.293463 L17.9902224,27.2932755 L18.0203751,27.2974008 L17.9610063,27.2015824 L17.8898386,27.2553982 L17.6682826,27.1605174 Z M18.6758664,27.3658425 L18.4979473,27.2897128 L18.4625508,27.3538417 L18.4138571,27.3549668 L18.4794063,27.5173517 L18.4956999,27.5576666 L18.663693,27.4528478 L18.8683936,27.5619794 L18.7174433,27.3562794 L18.7313022,27.3245899 L18.6758664,27.3658425 Z M14.0801229,26.5473551 L14.1024096,26.5831697 L14.058398,26.6639872 L14.3243402,26.6561117 L14.0801229,26.5473551 Z M14.4365229,26.7065523 L14.4084304,26.694364 L14.4567495,26.7729313 L14.4915842,26.6666123 L14.4365229,26.7065523 Z M14.5520766,26.915815 L14.5269807,26.8871258 L14.5408397,26.9090646 L14.5520766,26.915815 Z M14.0422917,26.4852888 L14.0192558,26.2645878 L13.861376,26.2970273 L13.9258015,26.2957147 L14.0422917,26.4852888 Z M19.2268537,28.1218885 L19.3500861,28.2902738 L19.1918317,28.653671 L18.7974132,28.6971736 L18.7011496,28.5664781 L18.4833392,28.7294256 L18.2928722,28.6482331 L18.2569138,28.7155497 L18.1046525,28.7191124 L18.3282687,28.973753 L18.2029762,29.3454006 L17.9634409,29.3945286 L18.2059727,29.5859778 L18.1499751,29.9761891 L17.7845854,30.1222605 L17.4766918,29.8786831 L17.5321276,29.4886594 L17.7873947,29.3868406 L17.5598456,29.1293875 L17.6855126,28.7569898 L17.8521947,28.7232377 L17.7602386,28.5707909 L17.6971242,28.6184188 L17.4176976,28.4987865 L17.3811773,28.195768 L17.4648929,28.1325767 L17.414701,28.1295765 L17.3615126,28.0204449 L17.2538247,28.2222072 L16.9421854,28.2328953 L16.7770016,27.9677541 L16.8940536,27.7487408 L16.8773854,27.7431154 L16.8388051,27.5584167 L16.6921623,27.7476157 L16.3932582,27.7073008 L16.336886,27.57098 L16.0816189,27.8948122 L15.6729669,27.8355586 L15.5583495,27.5482911 L15.261131,27.8083694 L14.8650269,27.6718611 L14.8138986,27.4106577 L14.8150223,27.4952253 L14.631672,27.6064196 L14.7013414,27.5923563 L14.907353,27.8274956 L14.8290686,28.0588847 L15.1000674,27.9475029 L15.3403518,28.1322017 L15.2998986,28.4324075 L15.0197229,28.547727 L14.7807495,28.3628407 L14.8163333,28.0973245 L14.8079056,28.1230136 L14.5016975,28.1841423 L14.3348281,27.9940057 L14.3367009,28.0862614 L14.1696443,28.1848924 L14.5432743,28.3159629 L14.6185622,28.7144247 L14.3779032,28.9219998 L14.7550917,28.9769407 L14.9013599,29.3425879 L14.6578917,29.6519818 L14.2694662,29.5951658 L14.1233853,29.2304561 L14.3381992,28.9561269 L14.3117922,28.9791908 L13.9289853,28.8454951 L13.8535101,28.4470334 L14.1267564,28.210769 L13.9649437,28.3071498 L13.7688581,28.1965181 L13.8267286,28.2632722 L13.7276558,28.5587902 L13.4868096,28.6075431 L13.7197899,28.7866166 L13.6793367,29.0868224 L13.3995356,29.2015794 L13.159813,29.0165056 L13.2002662,28.7166748 L13.4493529,28.614106 L13.4214477,28.6202939 L13.2158107,28.3851546 L13.2963425,28.1468276 L13.2169344,28.1940804 L13.048754,28.0988246 L13.1223564,28.4873483 L12.8148373,28.7524895 L12.5151841,28.6478581 L12.6565829,29.0022547 L12.413302,29.311461 L12.0237528,29.2550201 L11.8782338,28.8891853 L12.121702,28.579979 L12.4638685,28.629482 L12.4329667,28.6187938 L12.3569297,28.219957 L12.6644488,27.9548159 L13.0034315,28.0731356 L12.8406824,27.982005 L12.838435,27.7864306 L12.8185829,27.8471843 L12.5028234,27.9124383 L12.3529968,27.7438655 L12.3159147,28.0185697 L12.02188,28.1404522 L11.7696095,27.9452528 L11.8115609,27.6298585 L12.1061575,27.5083511 L12.2940026,27.6536725 L12.3891425,27.3650924 L12.7056511,27.3002135 L12.8416188,27.4528478 L12.8075332,27.3971569 L12.9672858,27.1005138 L13.2845436,27.0917007 L13.3143217,26.8805629 L13.3491564,26.866312 L13.2322916,26.801058 L13.1916512,26.8950013 L12.8652165,26.932691 L12.6696928,26.668675 L12.8006037,26.3669691 L13.0266546,26.3414675 L13.0249691,26.2516495 L13.1789159,26.1593939 L12.8165228,26.0341363 L12.735991,25.6227362 L12.9562361,25.4303495 L12.600398,25.3785963 L12.447013,24.9938229 L12.7030292,24.668303 L13.1120558,24.7275566 L13.2660026,25.1127051 L13.0744118,25.3555324 L13.4476674,25.4832277 L13.5281992,25.8946278 L13.3294916,26.0692009 L13.3999101,26.0260733 L13.5626593,26.1158913 L13.5310084,26.0804516 L13.6325159,25.7738704 L13.8529483,25.7283051 L13.6336396,25.5586073 L13.6759656,25.242838 L13.9703749,25.1213306 L14.2218963,25.3163425 L14.180694,25.6322993 L13.9608234,25.7224923 L14.1623402,25.9495686 L14.1432373,26.0056345 L14.3481252,25.857313 L14.7376743,26.0311361 L14.7807495,26.4449738 L14.8655888,26.4273477 L15.0152281,26.595733 L15.0517483,26.3206537 L15.3463449,26.1993338 L15.5984281,26.3943457 L15.5557276,26.71049 L15.2618801,26.8312474 L15.0732859,26.6864885 L14.978146,26.9745061 L14.7455402,27.022884 L14.8079056,27.0573861 L14.8105275,27.2379597 L15.0995056,26.9851942 L15.4956096,27.1209525 L15.5525437,27.4087826 L15.7757854,27.1254528 L16.1853738,27.1847064 L16.2803264,27.4241585 L16.4623657,27.1873316 L16.7625808,27.227834 L16.8429253,27.4234085 L17.0395727,27.2462102 L17.0744074,27.2576484 L16.9508004,27.088138 L17.1099912,26.7256784 L17.5029114,26.6818008 L17.5989878,26.8128712 L17.8169854,26.6489863 L18.0068907,26.7307412 L18.0434109,26.6636121 L18.1969832,26.6600494 L17.972056,26.4052214 L18.0965993,26.0331987 L18.3380074,25.9846333 L18.0939774,25.7926216 L18.1505369,25.4029728 L18.5155519,25.2570889 L18.824382,25.5002912 L18.7678225,25.890315 L18.5131173,25.9919462 L18.7404791,26.2497744 L18.6155612,26.6221721 L18.4477554,26.6559242 L18.5402733,26.8076209 L18.6026387,26.760368 L18.8828144,26.8805629 L18.8964861,26.9911946 L19.2710526,26.9499421 L19.5049693,27.2692741 L19.424063,27.4526602 L19.6074133,27.4787243 L19.6716514,27.6403592 L19.9080029,27.6718611 L20.0226202,27.9516282 L19.8383335,28.1914553 L19.5381185,28.1511403 L19.4575867,27.9559409 L19.2615011,28.1325767 L19.2268537,28.1218885 Z M19.716974,26.7056147 L19.5317508,26.9452543 L19.6474919,27.2252089 L19.9467705,27.2651488 L20.1316191,27.0256967 L20.0166272,26.7457422 L19.716974,26.7056147 Z M19.0137254,26.1569563 L18.8286895,26.3967834 L18.944056,26.6763629 L19.2433346,26.7172404 L19.4283705,26.4766633 L19.3128167,26.1970837 L19.0137254,26.1569563 Z M17.0564282,28.662484 L16.8715796,28.9023111 L16.9867588,29.1813281 L17.2869739,29.2220181 L17.4714479,28.982191 L17.3564559,28.7020489 L17.0564282,28.662484 Z M17.4412953,25.9349427 L17.2560721,26.1743948 L17.3718132,26.4541619 L17.6714664,26.4948519 L17.8553785,26.2553998 L17.7407612,25.9752577 L17.4412953,25.9349427 Z M19.4547774,28.7352384 L19.3984052,29.1248872 L19.7074225,29.3680895 L20.0713139,29.2223931 L20.1284353,28.8327444 L19.8186688,28.589542 L19.4547774,28.7352384 Z M16.8462964,26.6437359 L16.9026686,26.2540872 L16.5938386,26.0103223 L16.2288235,26.1567688 L16.1732004,26.5460425 L16.4812813,26.7892448 L16.8462964,26.6437359 Z M17.6066664,30.1914522 L17.5083427,30.4607186 L17.6926294,30.6799195 L17.9746779,30.6302289 L18.0720652,30.3602125 L17.8883404,30.1415741 L17.6066664,30.1914522 Z M20.7251197,26.6052961 L20.6363474,26.850186 L20.8034041,27.0493232 L21.0599821,27.0041329 L21.1485671,26.758868 L20.9813231,26.5597308 L20.7251197,26.6052961 Z M16.3915727,27.891812 L16.301864,28.1365144 L16.4692952,28.3364016 L16.7254987,28.2902738 L16.8140837,28.0461339 L16.647027,27.8464342 L16.3915727,27.891812 Z M12.0142014,26.2133972 L12.2655355,26.4082216 L12.5601321,26.2869017 L12.6020835,25.9713199 L12.3505621,25.7763081 L12.055591,25.8974404 L12.0142014,26.2133972 Z M15.2543888,25.7785582 L15.5102177,25.4530384 L15.3568327,25.0684524 L14.947057,25.0088238 L14.6912281,25.3347186 L14.8451749,25.7191171 L15.2543888,25.7785582 Z M4.19156757,21.9722637 L4.14942884,22.2882204 L4.40188665,22.4830448 L4.69667048,22.3615374 L4.73806007,22.0457682 L4.48616411,21.8507563 L4.19156757,21.9722637 Z M6.71183819,21.5471753 L6.75397692,21.231031 L6.50114454,21.0367692 L6.20748441,21.1580891 L6.16534568,21.4736708 L6.41742893,21.6681201 L6.71183819,21.5471753 Z M3.28830048,18.8666994 L3.33006464,18.5503676 L3.07760683,18.3561058 L2.78375942,18.4768631 L2.7414334,18.7931949 L2.99351665,18.9876443 L3.28830048,18.8666994 Z M7.01523704,19.3924814 L7.05775034,19.0767122 L6.80491796,18.8824503 L6.51125783,19.0035827 L6.46855725,19.3195395 L6.72120235,19.5143639 L7.01523704,19.3924814 Z M3.02666579,20.7054365 L2.77458254,20.5104246 L2.48054784,20.631932 L2.43822183,20.9475137 L2.68974323,21.1419631 L2.98452706,21.0213932 L3.02666579,20.7054365 Z M2.38428426,22.7215594 L2.20505419,22.9501358 L2.31255477,23.2186522 L2.59928542,23.2602797 L2.77814092,23.0326408 L2.67064034,22.7635619 L2.38428426,22.7215594 Z M2.83151664,21.8368804 L2.57568773,22.1631503 L2.72907271,22.5473612 L3.13866117,22.6064273 L3.39467736,22.2812825 L3.2411051,21.8966966 L2.83151664,21.8368804 Z M3.4971213,21.0362066 L3.14671434,21.3259118 L3.22162764,21.7751892 L3.64788431,21.9343864 L3.99885311,21.6444937 L3.92375253,21.1950288 L3.4971213,21.0362066 Z M6.91990987,17.8620131 L6.76633761,17.4770522 L6.35656187,17.4179861 L6.10073296,17.7435059 L6.25393065,18.1282794 L6.66389368,18.1877205 L6.91990987,17.8620131 Z M5.99753989,18.9887693 L6.34869597,18.6986891 L6.27359539,18.2494118 L5.84752601,18.090027 L5.49599536,18.3799197 L5.57184508,18.8291971 L5.99753989,18.9887693 Z M5.62447167,22.2608438 L5.36808091,22.5859886 L5.52165317,22.9705745 L5.93124162,23.0300157 L6.18650869,22.7046833 L6.03331099,22.3199099 L5.62447167,22.2608438 Z M5.86044856,21.9270734 L5.78516069,21.4776085 L5.35852946,21.3180363 L5.00793523,21.6081165 L5.08322309,22.0577689 L5.50947976,22.2169661 L5.86044856,21.9270734 Z M5.08771789,21.403729 L5.53420114,21.149276 L5.53626126,20.7676903 L5.61398381,20.631932 L5.65612254,20.6557459 L5.54393987,20.9672024 L5.76961618,21.2351563 L6.11421735,21.17384 L6.23407863,20.8441949 L6.00765319,20.5760536 L5.75706821,20.6212438 L6.12133412,20.4131061 L6.12451793,19.8981998 L5.7950867,19.7065631 L5.71642774,19.5709923 L5.75912832,19.5460533 L5.97225665,19.7990062 L6.31704511,19.7371274 L6.43578268,19.4078574 L6.21048094,19.1399035 L5.8655052,19.2008447 L5.77916763,19.4419844 L5.78085318,19.0208338 L5.33811559,18.761693 L5.00643696,18.950517 L4.85043002,18.9514545 L4.85043002,18.901764 L5.17517917,18.8443855 L5.29466588,18.5141779 L5.06842772,18.245849 L4.72401383,18.3075403 L4.60527625,18.6373729 L4.76971094,18.8325723 L4.40713058,18.6206844 L3.96102189,18.8749499 L3.95971091,19.2569107 L3.88105195,19.393044 L3.83872593,19.3681049 L3.95109588,19.0570235 L3.725045,18.7886946 L3.38100568,18.8501984 L3.26170626,19.180406 L3.487008,19.4483598 L3.73834211,19.4037321 L3.37332707,19.6114948 L3.37033054,20.1256511 L3.7005109,20.3186004 L3.77879529,20.4534211 L3.73553287,20.4781726 L3.52296638,20.2255947 L3.17836521,20.2867234 L3.05869122,20.616556 L3.28511666,20.8848849 L3.62934327,20.8230061 L3.71624269,20.5829915 L3.71418258,21.0032046 L4.15729473,21.2627204 L4.48822422,21.0737089 L4.6449803,21.0729589 L4.6449803,21.1222744 L4.3196693,21.1804029 L4.20036988,21.510423 L4.42604619,21.7787519 L4.77064736,21.7166856 L4.89032135,21.3874155 L4.72532481,21.1916536 L5.08771789,21.403729 Z M3.87112593,17.7643197 L4.12714213,17.4387998 L4.01964155,17.1685959 L4.02732016,17.1144051 L3.98424501,17.080653 L3.97356987,17.0540264 L3.94585195,17.0499011 L3.7027583,16.8580769 L3.31845308,17.0112738 L3.25927157,17.4217363 L3.39055713,17.5246801 L3.46209933,17.704691 L3.87112593,17.7643197 Z M4.13631901,18.7063771 L4.48728781,18.4164844 L4.41199994,17.9670195 L3.985556,17.8076348 L3.6345872,18.097715 L3.71006234,18.5469924 L4.13631901,18.7063771 Z M7.69357695,20.820756 L7.94940587,20.4950486 L7.79602089,20.1106502 L7.38643243,20.0508341 L7.1296671,20.3771039 L7.28342665,20.7609398 L7.69357695,20.820756 Z M6.25805088,20.5848666 L6.68430755,20.7438763 L7.03546363,20.4537961 L6.95998848,20.0047062 L6.53410639,19.8449465 L6.18257574,20.1350267 L6.25805088,20.5848666 Z M1.8014588,19.20422 L1.5454426,19.5297398 L1.69938943,19.9143257 L2.1087906,19.9737669 L2.36461952,19.647872 L2.21160911,19.2634736 L1.8014588,19.20422 Z M3.31246002,19.8895742 L3.23698487,19.4399218 L2.81054092,19.2805371 L2.4597594,19.5702423 L2.53504727,20.0200822 L2.96111665,20.1792794 L3.31246002,19.8895742 Z M2.17115592,16.4736785 L2.03443916,16.6505018 L2.11927847,16.8569519 L2.34027269,16.8869537 L2.47605305,16.7097554 L2.39121374,16.5033053 L2.17115592,16.4736785 Z M2.47792588,15.7397588 L2.28352587,15.9921492 L2.40432356,16.2871046 L2.71989583,16.3298572 L2.91448312,16.0769043 L2.79256173,15.7821364 L2.47792588,15.7397588 Z M3.45367158,15.5149326 L3.39523921,15.1490978 L3.04913977,15.0167147 L2.76147271,15.250729 L2.82065422,15.6169388 L3.1661918,15.7491343 L3.45367158,15.5149326 Z M5.33717917,12.0832859 L5.45778958,12.3778663 L5.77336185,12.420619 L5.96738729,12.167666 L5.84696416,11.8728981 L5.53064276,11.8305205 L5.33717917,12.0832859 Z M5.17386818,16.6754408 L5.36864276,16.423613 L5.2474705,16.12847 L4.93133638,16.0862799 L4.73731094,16.3382953 L4.85829592,16.6332507 L5.17386818,16.6754408 Z M4.3979537,15.4821181 L4.45657336,15.8477654 L4.80267279,15.9801484 L5.08977801,15.7459467 L5.03115835,15.3801119 L4.68468435,15.2479163 L4.3979537,15.4821181 Z M3.07760683,11.4843744 L2.88320682,11.7365773 L3.00400451,12.0315327 L3.31995135,12.0739103 L3.51416407,11.8213324 L3.39261724,11.526752 L3.07760683,11.4843744 Z M3.44861493,12.1802293 L3.161697,12.4142436 L3.21994209,12.7802659 L3.5664161,12.9122739 L3.85333403,12.6782597 L3.7943398,12.3120498 L3.44861493,12.1802293 Z M7.63083707,14.4978706 L7.54599776,14.2914205 L7.32500353,14.2614187 L7.18903589,14.4384294 L7.27406249,14.6445045 L7.49430758,14.6739438 L7.63083707,14.4978706 Z M6.8950012,14.4689938 L6.77439079,14.1740383 L6.45863124,14.1316608 L6.26404395,14.3838636 L6.38521621,14.6788191 L6.70041391,14.7208217 L6.8950012,14.4689938 Z M5.41565085,14.1789136 L5.47483236,14.5451235 L5.82036994,14.676944 L6.10747516,14.4429297 L6.0488555,14.0770949 L5.70256878,13.9447119 L5.41565085,14.1789136 Z M1.35609924,13.6908214 L1.4772715,13.9861519 L1.79303105,14.0279669 L1.98686921,13.7755765 L1.8662588,13.4809961 L1.55087382,13.4378685 L1.35609924,13.6908214 Z M0.0413708687,15.5649981 L-1.87283245e-05,15.8517031 L0.227155847,16.0311515 L0.496094586,15.9233325 L0.537671466,15.63719 L0.309747758,15.4573666 L0.0413708687,15.5649981 Z M0.801740841,14.9996512 L0.743121186,15.4099262 L1.06768305,15.6656918 L1.45217555,15.5123074 L1.51116977,15.1025949 L1.18585878,14.8460793 L0.801740841,14.9996512 Z M2.60246924,14.7926385 L2.30262876,14.4159281 L1.82655475,14.4869949 L1.65107035,14.9358973 L1.95109811,15.3126077 L2.42642299,15.2409784 L2.60246924,14.7926385 Z M3.56697795,14.2526056 L3.59057563,14.2949832 L3.57184731,14.2496054 L3.56697795,14.2526056 Z M3.69695252,13.6820083 L3.67223113,13.7230733 L3.70200916,13.6853835 L3.69695252,13.6820083 Z M4.68393522,13.9072096 L4.66146123,13.8665196 L4.67944042,13.9100222 L4.68393522,13.9072096 Z M4.548904,14.4749942 L4.55396064,14.4779944 L4.57849475,14.4378669 L4.548904,14.4749942 Z M2.83338948,14.9593362 L2.55864496,14.4616809 L2.85155595,13.9745262 L2.9292785,13.9760263 L2.93115133,13.7817644 L2.7191467,13.3990536 L3.01205769,12.9122739 L3.57990049,12.9223995 L3.61735714,12.9912162 L3.82037217,12.8758967 L3.93555137,12.9439634 L4.06084386,12.757577 L4.20111901,12.7677026 L4.01964155,12.4691844 L4.24625427,12.052534 L4.71970631,12.0407208 L4.96673291,12.445933 L4.90698956,12.5560022 L5.08453407,12.4112434 L5.43063351,12.5432514 L5.48906588,12.9087112 L5.2015861,13.1431005 L4.85586123,13.01128 L4.81091325,12.7315129 L4.73937106,12.8625834 L4.65940111,12.8644585 L4.75491556,13.0602204 L4.98040459,13.193166 L5.4173364,13.201229 L5.69320462,13.6988844 L5.40010634,14.1858516 L5.32163466,14.1843515 L5.32069825,14.3780508 L5.53176646,14.7616992 L5.23885547,15.2479163 L4.67138724,15.2374157 L4.63374331,15.169349 L4.46518839,15.2646048 L4.23969936,15.6398152 L3.67223113,15.6298771 L3.39786118,15.1320342 L3.43793979,15.0654677 L3.27050857,14.9670242 L2.83338948,14.9593362 Z M5.82486474,12.9195869 L5.64863121,13.3681142 L5.94884625,13.7446372 L6.42435841,13.6737578 L6.60059194,13.224668 L6.30056418,12.84777 L5.82486474,12.9195869 Z M3.50461262,15.8286392 L3.32856638,16.2771665 L3.62840685,16.6540645 L4.10410629,16.5820601 L4.28052711,16.1335328 L3.9799375,15.7570098 L3.50461262,15.8286392 Z M6.10298036,15.7982623 L6.27865204,15.35011 L5.97918613,14.9730245 L5.50292484,15.0450289 L5.32725316,15.4929937 L5.62709363,15.8700792 L6.10298036,15.7982623 Z M1.93461719,12.3246131 L1.99398598,11.9145256 L1.6684877,11.6581975 L1.28455705,11.8115818 L1.22481369,12.2216693 L1.5499374,12.4783725 L1.93461719,12.3246131 Z M2.74798832,13.1160988 L2.92422185,12.667384 L2.62400681,12.290486 L2.14849465,12.3619279 L1.97169927,12.8106427 L2.27191431,13.1871657 L2.74798832,13.1160988 Z M3.78535021,9.53369298 L3.74358604,9.84983725 L3.99510744,10.0440991 L4.29007855,9.92277919 L4.33203,9.60700995 L4.08032132,9.41162304 L3.78535021,9.53369298 Z M4.62063348,9.0977289 L4.48129474,9.45381311 L4.71914446,9.75289384 L5.09726934,9.69532783 L5.23642079,9.33924362 L4.99800922,9.0403504 L4.62063348,9.0977289 Z M9.21450418,7.93309541 L9.25720476,7.61732616 L9.00455966,7.42287681 L8.71033769,7.54457173 L8.66819896,7.85996595 L8.9202822,8.05460282 L9.21450418,7.93309541 Z M7.90295962,7.77146056 L7.76380817,8.12773228 L8.00259431,8.42681301 L8.38015733,8.369247 L8.51949606,8.01316279 L8.28033536,7.71445708 L7.90295962,7.77146056 Z M5.87655492,11.1710428 L5.83497804,11.486812 L6.086874,11.6818239 L6.38109598,11.5606915 L6.42379656,11.2443598 L6.17152603,11.0500979 L5.87655492,11.1710428 Z M7.12273762,6.29593312 L7.16581277,5.97960133 L6.91447866,5.78533949 L6.61913298,5.9068469 L6.5764324,6.22299117 L6.82870293,6.41744052 L7.12273762,6.29593312 Z M8.33932958,10.1766697 L8.2977527,10.4922514 L8.55021051,10.6865132 L8.84405792,10.5661309 L8.88582209,10.2497991 L8.63467526,10.0547872 L8.33932958,10.1766697 Z M7.65555845,9.52675505 L7.51696885,9.88246424 L7.75538042,10.1811699 L8.13294344,10.123979 L8.2720949,9.76770724 L8.03424517,9.46900153 L7.65555845,9.52675505 Z M4.66052481,7.29011872 L4.70285082,6.97416196 L4.45170399,6.77990012 L4.15673288,6.9010325 L4.11478144,7.21661424 L4.36649012,7.4112511 L4.66052481,7.29011872 Z M4.72813406,7.69889364 L4.96673291,7.99797437 L5.34373409,7.94040836 L5.48363467,7.58451166 L5.24484853,7.28599347 L4.86672366,7.34280943 L4.72813406,7.69889364 Z M2.39233744,8.44162641 L2.57194207,8.21380002 L2.4642542,7.9443461 L2.17789812,7.90290607 L1.99829349,8.13129499 L2.10579407,8.39981136 L2.39233744,8.44162641 Z M3.24204152,8.60082361 L3.49861956,8.27567879 L3.34448545,7.89053032 L2.93527156,7.83183924 L2.67925537,8.15698406 L2.83264034,8.54138249 L3.24204152,8.60082361 Z M4.03200224,8.81121144 L4.32510052,8.55619589 L4.33577566,8.77145901 L4.8215884,9.02103673 L5.08977801,8.84721363 L5.08827974,8.88696606 L5.25496183,8.99684775 L5.21881616,9.0583515 L5.34298495,9.28111508 L5.27163004,9.32067999 L5.25627281,9.92015403 L5.76793063,10.2327356 L5.93835839,10.1397299 L6.11496649,10.4073087 L5.97993527,10.4350604 L5.86513064,10.780269 L6.10653874,11.0536606 L6.46406245,10.9805312 L6.57905437,10.6345726 L6.37997228,10.4104964 L6.5462798,10.4005583 L6.617822,10.2572996 L6.88320235,10.4322477 L7.44299197,10.150043 L7.47520469,9.59294659 L7.63083707,9.33080561 L7.74582898,9.27305209 L7.74676539,9.28880305 L8.2329527,9.53800574 L8.66688797,9.25692611 L8.70190994,9.4324368 L9.14932961,9.58694622 L9.50629148,9.27586476 L9.41583367,8.81046139 L8.968414,8.65651451 L8.67456659,8.91171756 L8.66482786,8.6957044 L8.17864056,8.44631419 L7.9098891,8.61957476 L7.91251107,8.58000984 L7.74489256,8.46994064 L7.78197464,8.40843689 L7.65743129,8.18586082 L7.72916077,8.14685844 L7.74395615,7.54663435 L7.23248561,7.23424031 L7.06205785,7.32724598 L6.88582432,7.05966717 L7.01991912,7.0322905 L7.13547288,6.68576938 L6.89331565,6.41312776 L6.53672835,6.48681975 L6.42154916,6.83240332 L6.61969483,7.05666699 L6.45338731,7.0667926 L6.37210638,7.23086511 L6.09548903,7.06154228 L5.56922311,7.3488098 L5.5581734,7.81908846 L5.36864276,8.13654531 L5.25346356,8.19411132 L5.25290171,8.17817285 L4.76746354,7.92878265 L4.3331537,8.21004979 L4.29869358,8.03472661 L3.85146119,7.88059221 L3.49393748,8.19148616 L3.58402072,8.65651451 L4.03200224,8.81121144 Z M3.9374242,11.3741177 L4.0906219,11.7583286 L4.3689248,11.798456 L4.54066353,12.0079063 L4.92197222,11.9443399 L5.05756529,11.5828179 L4.81203695,11.2839247 L4.68224967,11.305676 L4.60321614,11.1080389 L4.19306583,11.0485978 L3.9374242,11.3741177 Z M4.99538725,10.0409114 L4.60415255,10.3476801 L4.64441845,10.6313849 L4.61670053,10.642073 L4.5723144,10.9499668 L4.81615719,11.141791 L5.1043861,11.027034 L5.10607165,11.0137207 L5.13397685,11.0255339 L5.52483698,10.7191402 L5.45572947,10.2271102 L4.99538725,10.0409114 Z M7.47539197,6.74821069 L7.54468677,7.24042819 L8.00484171,7.42643953 L8.3960764,7.12042087 L8.32621975,6.62764084 L8.15054807,6.55638649 L8.17601859,6.37618801 L7.85089488,6.11985988 L7.46715151,6.27380677 L7.40834457,6.68389426 L7.48269602,6.74258534 L7.47539197,6.74821069 Z M8.03967639,12.6763845 L7.809318,12.9687149 L7.94753303,13.315611 L8.31610646,13.3686767 L8.54627757,13.0761589 L8.40824981,12.7296378 L8.03967639,12.6763845 Z M7.66754458,11.4851244 L7.31058272,11.7954558 L7.40141509,12.2608592 L7.84864748,12.4155561 L8.20617119,12.1046622 L8.11590067,11.6394463 L7.66754458,11.4851244 Z M6.85267519,10.6285722 L6.88076767,11.1746055 L7.36658041,11.4236207 L7.82411337,11.1273526 L7.79751915,10.5813193 L7.31208098,10.3321166 L6.85267519,10.6285722 Z M5.27013177,6.89521965 L5.73084855,7.08160601 L6.12133412,6.77539984 L6.0522266,6.28318234 L5.59188438,6.09698349 L5.2004624,6.40337717 L5.27013177,6.89521965 Z M8.09904518,4.74802626 L8.220592,5.04260672 L8.53616427,5.08460928 L8.73037699,4.83259392 L8.60901745,4.53801346 L8.29307062,4.49526085 L8.09904518,4.74802626 Z M9.5954383,7.71501962 L9.79002559,7.46169168 L9.6692279,7.16748624 L9.35346835,7.12435861 L9.15925562,7.376749 L9.27986603,7.67170448 L9.5954383,7.71501962 Z M10.1114036,7.06548002 L10.4215447,6.82190268 L10.3659216,6.43150388 L10.0007192,6.28468243 L9.69039091,6.52807227 L9.74676316,6.91809604 L10.1114036,7.06548002 Z M13.0856488,3.24680975 L13.279487,2.99423186 L13.158502,2.70040145 L12.843117,2.65764884 L12.6485298,2.91003923 L12.7698893,3.20518222 L13.0856488,3.24680975 Z M12.0724465,3.94041453 L12.4378361,4.08686096 L12.6438477,3.9250386 L12.7698893,4.24080784 L13.0292766,4.27812262 L12.9968766,4.35800249 L13.3087032,4.76377722 L13.8153044,4.69683564 L13.9029529,4.48494773 L14.1320003,4.56970289 L14.5217368,4.24624568 L14.5125599,4.19392999 L14.5333483,4.21024348 L14.5434616,4.54757654 L15.0839611,4.84028189 L15.4349299,4.62351867 L15.4296859,4.70133592 L15.6385067,4.84178198 L15.5937461,4.91472392 L15.7454455,5.19767867 L15.6639773,5.24061879 L15.6362593,5.93234845 L16.2207704,6.30305855 L16.4481322,6.18342626 L16.6651935,6.52807227 L17.1375218,6.50969615 L17.248019,6.29912081 L17.5811958,6.50857108 L18.1936121,6.18680146 L18.2166479,5.61939188 L18.4294017,5.27418333 L18.6509577,5.16767684 L18.6517069,5.21474221 L19.1719797,5.50482239 L19.6827011,5.19786618 L19.6731497,4.60214237 L19.3839844,4.44125756 L19.4270595,4.42363149 L19.4869901,4.0137315 L19.3824861,3.93103896 L19.4843682,3.68821166 L19.2320976,3.35594141 L18.8187635,3.40863212 L18.6571381,3.7937806 L18.7728791,3.94510232 L18.7181924,4.32087523 L18.8998572,4.46394645 L18.7749392,4.53838848 L18.7854271,4.40750551 L18.5595635,4.25337111 L18.621367,4.15380254 L18.4691057,3.87122282 L18.5505739,3.82847021 L18.5781046,3.13617801 L17.9935935,2.76565543 L17.766419,2.88566274 L17.5493577,2.54082922 L17.0774039,2.55939285 L16.9654085,2.7701557 L16.6335426,2.55995539 L16.0209391,2.88134998 L15.9973414,3.44950961 L15.7613646,3.83334551 L15.5911241,3.91641307 L15.5901877,3.90197469 L15.0498755,3.60945686 L14.9826408,3.65070937 L14.7054616,3.43263358 L14.3217183,3.58620544 L14.3052373,3.69758723 L13.9613853,3.57026697 L13.6581737,3.82246984 L13.3888604,3.8579095 L13.2817344,3.58995567 L12.8723332,3.53088957 L12.7292488,3.71277566 L12.6925413,3.45344735 L12.3264026,3.3066259 L12.0171979,3.55020325 L12.0724465,3.94041453 Z M12.1578477,7.52094529 L11.9630731,7.77333567 L12.0848072,8.06810364 L12.4000049,8.11029371 L12.5940303,7.85771582 L12.4736072,7.56351038 L12.1578477,7.52094529 Z M12.2908188,7.08629379 L12.2353829,6.69533246 L11.869806,6.54869852 L11.5600395,6.79227587 L11.6162245,7.18248716 L11.9816141,7.32930861 L12.2908188,7.08629379 Z M10.2807077,2.85097313 L10.4747331,2.59839523 L10.3544973,2.30400228 L10.0391123,2.2616247 L9.84415045,2.51401509 L9.96569727,2.80878305 L10.2807077,2.85097313 Z M7.54449949,2.45269885 L7.5857018,2.16543134 L7.35815266,1.98635792 L7.08921392,2.09380197 L7.04744976,2.38069446 L7.27537347,2.5601429 L7.54449949,2.45269885 Z M8.66819896,3.14274091 L8.72756775,2.73284092 L8.40225675,2.47670031 L8.0183261,2.6306472 L7.95839546,3.03998465 L8.28370646,3.29650028 L8.66819896,3.14274091 Z M9.61416662,4.05929678 L9.8089412,3.58564291 L9.49748916,3.17986817 L8.98995157,3.24680975 L8.79498971,3.72046363 L9.10662903,4.12605085 L9.61416662,4.05929678 Z M13.4476674,7.12492115 L13.6435656,6.65201732 L13.331739,6.24586756 L12.824576,6.31280915 L12.628865,6.78646302 L12.9410662,7.19261277 L13.4476674,7.12492115 Z M9.44167876,6.01447846 L9.13003944,5.60814119 L8.65359086,5.67133254 L8.5000186,5.64920619 L8.24456426,5.97528857 L8.39738739,6.35987451 L8.6129504,6.39100141 L8.73899202,6.5548864 L9.24652962,6.48813233 L9.44167876,6.01447846 Z M10.9929459,9.08591568 L11.0525019,8.67582819 L10.7271909,8.41950006 L10.3432603,8.57307192 L10.2844534,8.9827844 L10.6086407,9.23948754 L10.9929459,9.08591568 Z M10.9257112,3.38875591 L11.1139308,3.68521148 L11.0618661,3.68164876 L10.9412557,3.86315982 L10.8758938,3.82378242 L10.6328002,3.95766559 L10.5929089,3.8824735 L9.96213889,3.86372236 L9.63046027,4.40075509 L9.73271692,4.59032915 L9.42688338,4.78909127 L9.42707066,4.79771679 L9.39673078,4.6435824 L9.04370186,4.52282504 L8.76315156,4.7682775 L8.83488104,5.13467483 L9.18847181,5.25543219 L9.44018049,5.03529377 L9.44991922,5.22693045 L9.62971113,5.31881106 L9.44710997,5.61470409 L9.7452649,6.17048797 L10.2479331,6.18623893 L10.5876649,6.39175146 L10.6539632,6.52582213 L10.6384187,6.52619715 L10.3743493,7.03135294 L10.6805574,7.51269479 L10.6923563,7.51213225 L10.4908395,7.54982205 L10.3290268,8.00697491 L10.6447863,8.37543487 L11.1210476,8.2873045 L11.2822985,7.82977661 L11.0000626,7.49900645 L11.2485875,7.48906835 L11.5126569,6.98372504 L11.3246245,6.68670694 L11.3766892,6.69064468 L11.4971124,6.50838357 L11.5628488,6.5483235 L11.8051933,6.41406532 L11.846021,6.48963242 L12.4760419,6.50838357 L12.8084696,5.97153834 L12.7056511,5.78177678 L13.0118592,5.58376471 L13.0114847,5.57513918 L13.0410754,5.72871104 L13.3950408,5.84890587 L13.6757783,5.60382843 L13.6032997,5.23686856 L13.2508327,5.11629871 L12.9987494,5.33681215 L12.9888234,5.14517547 L12.8090315,5.05329487 L12.9914454,4.75721432 L12.6934777,4.20161796 L12.1909968,4.18605451 L11.8514523,3.97997945 L11.7845921,3.8462838 L11.7997621,3.84572126 L12.0632696,3.34056547 L11.7585598,2.85922363 L11.7478846,2.85941114 L11.9479031,2.82228388 L12.1093413,2.3649435 L11.793769,1.99592101 L11.3173204,2.0844264 L11.155695,2.54251682 L11.4383054,2.87272445 L11.1892187,2.8834126 L10.9257112,3.38875591 Z M14.8575356,2.76959317 L14.8992998,2.45344889 L14.6472165,2.25899954 L14.3529946,2.38069446 L14.310294,2.69608868 L14.5633136,2.89053804 L14.8575356,2.76959317 Z M15.0260905,3.28074932 L15.2777992,3.61264455 L15.6915079,3.56014135 L15.8521969,3.17518039 L15.6004882,2.84366018 L15.1869668,2.89597587 L15.0260905,3.28074932 Z M23.1204724,7.47913024 L23.0794573,7.45175357 L23.0770227,7.4555038 L23.1184122,7.48194291 L23.1204724,7.47913024 Z M21.9587544,6.34074835 L21.9164284,6.31430924 L21.9145556,6.31749693 L21.9557579,6.34468609 L21.9587544,6.34074835 Z M24.3085973,7.66889181 L24.2898689,7.66607913 L24.3801395,7.84083979 L23.9898412,8.45250207 L23.2654296,8.42025011 L23.221418,8.33511992 L22.9176446,8.49769233 L22.8406712,8.4496894 L22.6895336,8.67245298 L22.5987012,8.66570257 L22.8298088,9.04728833 L22.5228515,9.60851004 L21.8829047,9.62276091 L21.5506642,9.07616509 L21.8587451,8.51381831 L21.8720423,8.51381831 L21.7808353,8.32349421 L21.373307,8.06922871 L20.7711913,8.04185204 L20.4363289,7.39756277 L20.6618179,7.04522879 L20.4342688,6.92315885 L20.4269647,6.69008214 L20.1289971,6.93928483 L19.7546179,6.80146393 L19.7460029,6.75196091 L19.6076005,6.80933941 L19.4040237,6.65201732 L19.3489624,6.72252162 L19.0341393,6.68033155 L18.912967,6.38556358 L19.107367,6.13279817 L19.4225647,6.17573829 L19.4622688,6.27230668 L19.6920653,6.17780092 L19.832715,6.2858075 L19.9924676,6.15173683 L20.3670341,6.28937022 L20.4250919,6.6237031 L20.4187243,6.43075383 L20.783552,6.20405252 L20.6547012,5.95597489 L20.9524815,5.48888392 L20.8494757,5.2293681 L21.0798341,4.93628774 L21.3229278,4.97191491 L21.2839729,4.64733262 L21.6276376,4.39025445 L22.022618,4.55938976 L22.0733717,4.98597827 L21.729707,5.24305644 L21.5122711,5.15005077 L21.5866226,5.33606211 L21.5626503,5.36662647 L21.7695983,5.37637706 L21.8136099,5.46075721 L22.1173833,5.29930987 L22.1941694,5.3475003 L22.3458689,5.12417419 L22.4367012,5.13054958 L22.2054064,4.74877631 L22.5133001,4.18792962 L23.1526851,4.1744288 L23.4841764,4.72102462 L23.1768446,5.28262135 L23.1622365,5.28280886 L23.2545672,5.47313296 L23.6617209,5.72758597 L24.2643984,5.75440011 L24.5988863,6.39868938 L24.3733973,6.75139838 L24.6007591,6.87328081 L24.6161164,7.36587334 L24.4797742,7.45137855 L24.3085973,7.66889181 Z M14.1190778,6.0397925 L14.4136743,5.91884763 L14.4561876,5.60270336 L14.2715263,5.46038218 L14.2179633,5.32949921 L13.9029529,5.28749665 L13.7085529,5.5393245 L13.8293506,5.83409246 L13.8686801,5.8395303 L13.8677437,5.84553066 L14.1190778,6.0397925 Z M15.5572258,5.27493338 L15.3043934,4.94247562 L14.8914339,4.99535384 L14.7299957,5.38012729 L14.9826408,5.71202252 L15.3957877,5.65951932 L15.5572258,5.27493338 Z M19.7583636,3.4658231 L20.0111959,3.65989743 L20.3052306,3.53839003 L20.3475566,3.2229958 L20.0956607,3.02873396 L19.8008769,3.14949132 L19.7583636,3.4658231 Z M17.0266502,7.19373784 L17.1583103,6.82677797 L16.9064143,6.52882231 L16.5221091,6.59876408 L16.3915727,6.96591146 L16.6434686,7.26405463 L17.0266502,7.19373784 Z M16.6485253,7.90290607 L16.678116,7.68220512 L16.5016952,7.5456968 L16.2956837,7.63082699 L16.2657183,7.85190296 L16.4421392,7.98766124 L16.6485253,7.90290607 Z M17.7450687,0.820036828 L17.7746594,0.599148364 L17.5982386,0.462827554 L17.3924143,0.547582721 L17.362449,0.768846208 L17.5392444,0.904604483 L17.7450687,0.820036828 Z M17.8035011,1.58002065 L17.8454525,1.26406389 L17.5935565,1.06961454 L17.2987727,1.19074693 L17.2560721,1.5068912 L17.5083427,1.7005905 L17.8035011,1.58002065 Z M17.6918802,2.47032492 L17.8233531,2.10299003 L17.5712698,1.80522188 L17.1882756,1.87497613 L17.0564282,2.24231102 L17.3085114,2.54007917 L17.6918802,2.47032492 Z M15.7553715,1.07073961 L16.0110131,0.745032256 L15.8578154,0.360446313 L15.4484143,0.301567724 L15.1923981,0.626900055 L15.3455958,1.01129849 L15.7553715,1.07073961 Z M15.6694085,2.2927516 L16.1666455,2.50745219 L16.6009553,2.18305741 L16.5382155,1.64508712 L16.0415403,1.43019902 L15.6068559,1.75403126 L15.6694085,2.2927516 Z M18.6082572,7.31430769 L18.5445809,6.77558735 L18.0479057,6.56126179 L17.6135958,6.88490652 L17.6757739,7.42325183 L18.1733855,7.63776491 L18.6082572,7.31430769 Z M14.9405021,7.82265118 L14.7873044,7.43787772 L14.470983,7.39212494 L14.479598,7.33212128 L14.1546616,7.07579315 L13.7697945,7.22936501 L13.7108003,7.63945251 L14.0355495,7.89596815 L14.1761992,7.83990223 L14.2754593,8.08891741 L14.6844859,8.14817102 L14.9405021,7.82265118 Z M15.8875935,6.90159504 L15.8241044,6.36324972 L15.3270547,6.14836162 L14.8927449,6.47219386 L14.9560466,7.01053918 L15.4525345,7.22561479 L15.8875935,6.90159504 Z M20.3906318,0.573646809 L20.5694873,0.345445399 L20.4619867,0.0763664971 L20.1754433,0.0351139825 L19.9965878,0.262752858 L20.1033393,0.532394295 L20.3906318,0.573646809 Z M19.8368352,1.68971484 L20.0922896,1.36400749 L19.9390919,0.979421544 L19.5293162,0.920542955 L19.2734872,1.24587529 L19.4266849,1.63064874 L19.8368352,1.68971484 Z M18.8871219,2.91997733 L19.3212445,2.59614509 L19.2588791,2.05761227 L18.7620167,1.84291168 L18.3273323,2.16655641 L18.3896976,2.70508923 L18.8871219,2.91997733 Z M8.2921342,22.5670499 L8.45188681,22.3600373 L8.35187756,22.1179601 L8.09342668,22.0830829 L7.93348679,22.2906581 L8.03312148,22.5321728 L8.2921342,22.5670499 Z M8.5447793,23.4191019 L8.80847411,23.216027 L8.7639007,22.8854443 L8.45600704,22.7592492 L8.1926868,22.9630741 L8.23726021,23.2923441 L8.5447793,23.4191019 Z M9.94003947,26.6671749 L9.78066143,26.874 L9.87973427,27.1158897 L10.1389343,27.1505793 L10.2984996,26.9433792 L10.1994268,26.7018645 L9.94003947,26.6671749 Z M6.83151218,24.0647037 L6.57268674,24.0300141 L6.41330869,24.2372142 L6.51256881,24.478729 L6.77064512,24.5136061 L6.9307723,24.3065935 L6.83151218,24.0647037 Z M11.8190523,24.9966355 L11.7194176,24.7551208 L11.4605921,24.7202437 L11.3017759,24.9266938 L11.4002869,25.1691461 L11.6600488,25.2038357 L11.8190523,24.9966355 Z M7.49618041,26.3221538 L7.33736422,26.5291665 L7.43606249,26.7712437 L7.69507522,26.8051833 L7.85482783,26.5985457 L7.75538042,26.3564684 L7.49618041,26.3221538 Z M8.05803015,25.5846714 L7.79508447,25.7884963 L7.83965788,26.1181414 L8.14736425,26.2447116 L8.41012265,26.0414492 L8.36629837,25.7116166 L8.05803015,25.5846714 Z M10.8955586,22.7048708 L10.7964857,22.4639187 L10.5380349,22.428854 L10.3782823,22.6358666 L10.4771678,22.8771938 L10.735806,22.912446 L10.8955586,22.7048708 Z M10.1739562,23.6495534 L10.4376511,23.4457285 L10.3934522,23.1160834 L10.0857458,22.9895132 L9.82205103,23.1931506 L9.86643716,23.5229832 L10.1739562,23.6495534 Z M9.2836117,21.1736525 L9.23510534,21.510048 L9.50160939,21.7198733 L9.81699438,21.5938656 L9.86550074,21.2576576 L9.59918397,21.0474573 L9.2836117,21.1736525 Z M8.3692949,27.6118574 L8.32060126,27.948253 L8.58747988,28.1580782 L8.90211573,28.0320706 L8.95118394,27.6954875 L8.68505445,27.4856623 L8.3692949,27.6118574 Z M9.35665216,25.7641198 L9.41339899,25.7988094 L9.628962,25.6812398 L9.66342212,25.7459312 L10.2057944,25.7652449 L10.4943979,25.3043418 L10.4035655,25.1333314 L10.669695,24.9621334 L10.6638892,24.8260001 L10.712021,25.0800781 L11.0073667,25.1839595 L11.2444673,24.979572 L11.1862222,24.6711157 L10.8906892,24.5677969 L10.66108,24.7654339 L10.6530268,24.5872981 L10.4927123,24.5047931 L10.6543378,24.2460273 L10.3994453,23.7654355 L9.96007878,23.749872 L9.66342212,23.5685485 L9.60161865,23.4431033 L9.61416662,23.4421658 L9.84190305,23.0122021 L9.58438859,22.5996769 L9.41021517,22.6060523 L9.73870998,22.5473612 L9.87673773,22.1639004 L9.61472847,21.8526314 L9.21394233,21.9238857 L9.0757273,22.3073466 L9.32949609,22.60849 L9.09857585,22.616553 L8.87046486,23.0465167 L9.03677238,23.3129704 L8.98246024,23.3095952 L8.87570879,23.46973 L8.81877469,23.4350403 L8.60302439,23.55261 L8.56912612,23.4882936 L8.026192,23.4686049 L7.73796308,23.9300705 L7.82917002,24.1012685 L7.5622914,24.2720914 L7.56865903,24.4076621 L7.5209018,24.1535841 L7.22499428,24.0502653 L6.9877064,24.2546528 L7.04557693,24.5621716 L7.34110989,24.6660529 L7.57109371,24.4680408 L7.57914689,24.6461767 L7.73927406,24.7290567 L7.57783591,24.9874475 L7.8327284,25.4680393 L8.2720949,25.4841653 L8.56912612,25.6658638 L8.63055503,25.7911215 L8.6185689,25.7911215 L8.39008334,26.2210852 L8.64815965,26.6337978 L8.82252035,26.62761 L8.49383826,26.6864885 L8.35506137,27.0697619 L8.61725791,27.3812184 L9.01804406,27.309589 L9.15625909,26.9263157 L8.90211573,26.6247973 L9.1337851,26.6169218 L9.36208338,26.1871456 L9.19596314,25.9212544 L9.24971343,25.9246296 L9.35665216,25.7641198 Z M6.87627287,22.8231906 L6.92496652,22.486795 L6.65808789,22.2764072 L6.34326476,22.4026024 L6.2947584,22.7386229 L6.56144974,22.9488232 L6.87627287,22.8231906 Z M7.70631221,23.6264895 L7.87430528,23.2274652 L7.61379429,22.8824442 L7.18435381,22.9360724 L7.01692259,23.3345342 L7.27705902,23.6793677 L7.70631221,23.6264895 Z M11.3193806,27.9596912 L11.2851077,28.1952055 L11.472391,28.342027 L11.6933852,28.2540841 L11.7269089,28.0189448 L11.5396257,27.8713733 L11.3193806,27.9596912 Z M11.4356835,26.4740381 L11.4015979,26.7093649 L11.5885066,26.8563739 L11.8093135,26.768056 L11.8432118,26.5331042 L11.6561158,26.3855327 L11.4356835,26.4740381 Z M10.5258615,25.6077353 L10.3580557,26.0063846 L10.6178175,26.3514056 L11.0478199,26.2977773 L11.2156256,25.899128 L10.9553019,25.554107 L10.5258615,25.6077353 Z M5.06430748,26.0581377 L5.03003465,26.2932771 L5.21656876,26.440286 L5.43718842,26.3521557 L5.47089941,26.1164538 L5.28455258,25.9694448 L5.06430748,26.0581377 Z M5.86363237,25.577921 L5.81456416,25.914129 L6.08050637,26.1245168 L6.39589135,25.9985091 L6.44439771,25.6617386 L6.17826822,25.4519133 L5.86363237,25.577921 Z M7.29335266,24.9992607 L6.86428675,25.0527015 L6.69648096,25.4513508 L6.95661739,25.7961843 L7.38587058,25.742556 L7.55348909,25.3440942 L7.29335266,24.9992607 Z M11.8359078,23.2355282 L11.7874014,23.5715487 L12.0544673,23.7823115 L12.3691032,23.6557413 L12.4179841,23.3199083 L12.1518546,23.109333 L11.8359078,23.2355282 Z M11.3675124,24.1813358 L11.5362546,23.7826865 L11.2755563,23.4376655 L10.8468649,23.4911063 L10.6781227,23.8897556 L10.938821,24.2345891 L11.3675124,24.1813358 Z M21.3802365,4.07017244 L21.5746365,3.81778206 L21.4536515,3.52301409 L21.1382665,3.480449 L20.9436792,3.73283938 L21.0650388,4.02779486 L21.3802365,4.07017244 Z M23.7023614,10.2891765 L23.786077,10.3923078 L24.1778736,10.329679 L24.319647,9.95859388 L24.0696238,9.6505126 L23.6782019,9.71351644 L23.671647,9.72870486 L23.6547915,9.72645473 L23.4605787,9.97828258 L23.5819383,10.2734256 L23.7023614,10.2891765 Z M23.700114,8.72308107 L23.3055082,8.55357073 L22.9624053,8.81121144 L23.0131591,9.23742492 L23.0629764,9.2584262 L22.9897487,9.28880305 L22.9487336,9.58957138 L23.1884562,9.77427014 L23.4680701,9.65857559 L23.508336,9.35874481 L23.4896076,9.34468146 L23.7506805,9.14910703 L23.700114,8.72308107 Z M25.6536655,7.62088888 L25.9690505,7.66289144 L26.1627014,7.41087608 L26.042091,7.11629562 L25.7268933,7.07391804 L25.5326806,7.32649594 L25.6536655,7.62088888 Z M24.6402759,7.11367046 L24.7088216,7.50688193 L25.0839499,7.64489034 L25.3894089,7.38856222 L25.3217996,6.9946007 L24.9466713,6.85734234 L24.6402759,7.11367046 Z M20.5668653,9.84533697 L20.7618272,9.5931341 L20.6399058,9.29874116 L20.3248954,9.25636357 L20.1303081,9.50875396 L20.2516676,9.80389695 L20.5668653,9.84533697 Z M21.531374,8.83596295 L21.480433,8.40918693 L21.0858272,8.24005162 L20.7421624,8.49769233 L20.7932908,8.92409332 L21.187522,9.09304112 L21.531374,8.83596295 Z M24.7116308,4.54045111 L24.905469,4.28843575 L24.784484,3.99385529 L24.469099,3.95147771 L24.274699,4.20368058 L24.3954967,4.49863606 L24.7116308,4.54045111 Z M23.9495753,5.55695057 L24.2938019,5.29930987 L24.2426736,4.87290887 L23.8480678,4.70396108 L23.5047776,4.96103925 L23.5559059,5.38762775 L23.9495753,5.55695057 Z M23.497099,2.82772171 L23.5562805,2.41819675 L23.2309695,2.16186862 L22.8474134,2.3158155 L22.7882319,2.72515296 L23.1126065,2.98204362 L23.497099,2.82772171 Z M23.3373464,4.05535904 L23.5206967,3.57007946 L23.1918273,3.16786744 L22.6803567,3.25168505 L22.4964446,3.73715214 L22.8247521,4.13955167 L23.3373464,4.05535904 Z M22.3554203,10.5445671 L22.5382088,10.0591 L22.2108376,9.65688799 L21.6982434,9.74126813 L21.515455,10.2271102 L21.8435752,10.6285722 L22.3554203,10.5445671 Z M19.800315,4.88003431 L19.7452537,4.92428701 L19.7548052,4.98354062 L19.6871959,5.13861257 L19.804248,5.29930987 L19.8197925,5.39569074 L19.8971404,5.42513004 L20.0166272,5.58864 L20.2544769,5.56276343 L20.263841,5.56688868 L20.2711451,5.56107582 L20.5704237,5.52826132 L20.7953509,5.01729268 L20.4659197,4.56707773 L19.911374,4.62783144 L19.800315,4.88003431 Z M18.7408537,8.76339602 L18.7655751,8.76677123 L19.0219658,8.44162641 L18.8683936,8.05666544 L18.4591797,7.99778685 L18.3372583,8.15210876 L18.1230063,8.237989 L18.064012,8.64788898 L18.3889485,8.90421711 L18.7408537,8.76339602 Z M20.1338665,8.41274965 L20.3586064,7.90140598 L20.0291751,7.45137855 L19.475004,7.51194474 L19.2504514,8.02272587 L19.5798826,8.47312833 L20.1338665,8.41274965 Z M26.9123962,5.55882569 L26.971765,5.14873819 L26.6462667,4.89241006 L26.2623361,5.04598192 L26.2025927,5.45625693 L26.5284656,5.71239755 L26.9123962,5.55882569 Z M25.0060401,6.34524862 L25.5609603,6.28505745 L25.7849511,5.7739013 L25.4553326,5.32312382 L24.9009742,5.38425254 L24.676047,5.89522119 L25.0060401,6.34524862 Z M26.2812517,7.95934701 L26.2406112,8.25955281 L26.4801465,8.44425157 L26.7608841,8.32911955 L26.8005881,8.02910126 L26.5606783,7.84346495 L26.2812517,7.95934701 Z M26.1462205,8.71595563 L26.005758,9.08685324 L26.2552193,9.39530954 L26.6472031,9.33268072 L26.7884147,8.96140809 L26.5383916,8.65295179 L26.1462205,8.71595563 Z M22.4932608,12.8091426 L22.4528076,13.1085984 L22.6925302,13.2938597 L22.9719568,13.1787277 L23.0125972,12.8790844 L22.7726874,12.6938231 L22.4932608,12.8091426 Z M23.805929,12.9694649 L23.9475152,12.5985673 L23.697492,12.290111 L23.3055082,12.3529273 L23.1641094,12.7240124 L23.4143198,13.0322812 L23.805929,12.9694649 Z M29.5564611,10.5192531 L29.5965397,10.2190473 L29.357379,10.0343485 L29.0775778,10.1494805 L29.0374992,10.4494988 L29.2772217,10.6341976 L29.5564611,10.5192531 Z M29.6437351,7.36456076 L29.8145374,7.14836008 L29.7122807,6.892782 L29.4395963,6.85359211 L29.2691686,7.06960528 L29.3712379,7.32555838 L29.6437351,7.36456076 Z M29.0498599,8.41950006 L29.2933281,8.11029371 L29.1470599,7.74539647 L28.7582599,7.68895553 L28.5146044,7.99797437 L28.6606853,8.36362165 L29.0498599,8.41950006 Z M28.2606483,9.46712642 L28.6634945,9.14591934 L28.5872703,8.63532572 L28.1076379,8.44631419 L27.7042298,8.7678963 L27.7800795,9.2781149 L28.2606483,9.46712642 Z M22.9028492,15.5818741 L23.2918365,15.6385026 L23.4710666,15.4099262 L23.9761695,15.3411095 L24.1909834,14.8149524 L24.1274944,14.7333849 L24.3451175,14.5595618 L24.2685187,14.0489682 L23.7888863,13.8599567 L23.3862273,14.1811638 L23.422373,14.4226785 L23.280225,14.4425547 L23.0854504,14.9197713 L22.999862,14.907583 L22.7567683,15.2166019 L22.9028492,15.5818741 Z M22.5273463,10.6345726 L22.1246874,10.9561547 L22.1278712,10.9762184 L21.922796,10.8147711 L21.7888885,10.8680243 L21.7070457,10.6628868 L21.3176839,10.6070084 L21.0749648,10.9158397 L21.2201093,11.2812995 L21.4868006,11.3195518 L21.4787474,11.3784304 L21.8034966,11.634571 L22.1881764,11.4808117 L22.1954804,11.4314962 L22.2007244,11.4663733 L22.680544,11.6551973 L23.0839521,11.3341777 L23.007166,10.8237716 L22.5273463,10.6345726 Z M30.7318507,12.7208248 L30.9753189,12.4123684 L30.829238,12.0467212 L30.4406253,11.9902802 L30.1967825,12.2991115 L30.3428634,12.6641963 L30.7318507,12.7208248 Z M28.9663316,11.9934679 L29.0427431,12.5040615 L29.5218137,12.6930731 L29.9252218,12.371866 L29.8489975,11.8608973 L29.3695524,11.6722608 L28.9663316,11.9934679 Z M29.6334345,14.1920394 L29.5122622,13.897084 L29.1968772,13.8545189 L29.0616587,14.0300296 L29.1013628,13.7384493 L28.8610784,13.5533755 L28.5810899,13.6685075 L28.5417604,13.9685258 L28.7818576,14.1539746 L29.0530437,14.0418428 L29.0024772,14.1076593 L29.1236495,14.4020522 L29.4390345,14.4444298 L29.6334345,14.1920394 Z M28.4398784,21.5366746 L28.4928795,21.4684205 L28.682972,21.6150544 L28.9770067,21.493922 L29.0193327,21.1777778 L28.7674368,20.9829534 L28.5473789,21.0737089 L28.5131061,20.9895163 L28.1975338,20.9469512 L28.0033211,21.1995291 L28.1243061,21.493922 L28.4398784,21.5366746 Z M21.9360931,17.0138989 L22.0726226,16.8367006 L21.9877833,16.6308131 L21.7667891,16.6008113 L21.6302596,16.777822 L21.7154735,16.9837096 L21.9360931,17.0138989 Z M22.8043382,17.1243432 L22.9989255,16.8721403 L22.8777533,16.5775598 L22.5623683,16.5349947 L22.367781,16.7871976 L22.4891405,17.0819656 L22.8043382,17.1243432 Z M24.1117626,17.1354063 L24.0486481,16.7022549 L23.6422435,16.5411826 L23.2995151,16.8123242 L23.3633787,17.245288 L23.7692215,17.4071104 L24.1117626,17.1354063 Z M30.5473767,17.9420805 L30.6683617,18.2368485 L30.9837467,18.2796011 L31.1788958,18.0268357 L31.0575363,17.7324427 L30.7415894,17.6898776 L30.5473767,17.9420805 Z M32.0330947,15.0369659 L31.6486022,15.1907253 L31.5894207,15.6004378 L31.9147317,15.8573284 L32.2986623,15.703194 L32.3580311,15.2932941 L32.0330947,15.0369659 Z M29.9589328,16.0135255 L30.3065305,16.4633654 L30.8691293,16.3866732 L31.0846923,15.8603286 L30.7369073,15.4108637 L30.1743085,15.4873684 L29.9589328,16.0135255 Z M22.1597093,19.2128455 L21.8343983,18.9570799 L21.4502804,19.1108393 L21.3914735,19.5199892 L21.7156607,19.7766923 L22.1009024,19.622933 L22.1597093,19.2128455 Z M22.2539128,13.7971404 L22.1949186,14.2068528 L22.5200423,14.4629934 L22.9047221,14.3092341 L22.9633417,13.8997091 L22.6380307,13.643381 L22.2539128,13.7971404 Z M30.5767802,20.3984803 L30.426579,20.7667527 L30.6702345,21.0817719 L31.0637166,21.0279561 L31.2141051,20.6594962 L30.9706368,20.344852 L30.5767802,20.3984803 Z M29.5701327,19.4723613 L29.356068,19.9987059 L29.7036657,20.4485458 L30.2664518,20.3714786 L30.481453,19.8449465 L30.1338553,19.3954816 L29.5701327,19.4723613 Z M27.1538043,21.8050035 L27.4371639,22.1787138 L27.9029373,22.1194602 L28.0842275,21.6868713 L27.8004934,21.3129735 L27.3347199,21.3720396 L27.1538043,21.8050035 Z M20.1289971,25.0677024 L20.1716977,24.7523081 L19.9196144,24.5569212 L19.6250179,24.6786161 L19.5826919,24.9943854 L19.8347751,25.1890223 L20.1289971,25.0677024 Z M21.4485948,24.3671597 L21.1648607,23.9930744 L20.6994619,24.0528905 L20.5181717,24.4852919 L20.8019058,24.8591897 L21.2671174,24.8003111 L21.4485948,24.3671597 Z M23.3158088,27.8387463 L23.2732955,28.1545155 L23.5257533,28.3489649 L23.8201626,28.227645 L23.8624886,27.9116882 L23.6100308,27.7172389 L23.3158088,27.8387463 Z M23.4907313,26.5312291 L23.3369718,26.9415041 L23.6143383,27.2786496 L24.045277,27.2072078 L24.1994111,26.7976828 L23.9218574,26.4599747 L23.4907313,26.5312291 Z M20.2909971,19.9488278 L20.2490457,20.2651596 L20.5011289,20.4594215 L20.7953509,20.3381016 L20.8374896,20.0223323 L20.5852191,19.8276955 L20.2909971,19.9488278 Z M21.0178434,20.9387007 L21.3013902,21.3120359 L21.7667891,21.2531573 L21.9480793,20.8198184 L21.6639706,20.4466707 L21.1989463,20.5053618 L21.0178434,20.9387007 Z M27.7941257,25.8237485 L27.749365,26.1560187 L28.0139963,26.3602187 L28.3233882,26.2328984 L28.367587,25.9011907 L28.1029558,25.6966157 L27.7941257,25.8237485 Z M26.8254968,24.9116929 L26.6428956,25.3566575 L26.9358066,25.7378682 L27.4124425,25.6743018 L27.5954182,25.2287747 L27.3015708,24.8477515 L26.8254968,24.9116929 Z M30.4037305,23.6701797 L30.1471524,23.9949495 L30.3010992,24.380098 L30.710875,24.438789 L30.966142,24.1136442 L30.8131316,23.7286832 L30.4037305,23.6701797 Z M29.2219732,23.2501541 L28.7797974,23.6066133 L28.8676333,24.1685851 L29.397083,24.3735351 L29.8390715,24.0172633 L29.752172,23.4552916 L29.2219732,23.2501541 Z M25.2716077,20.0112691 L25.1789025,20.0843986 L25.2680493,20.2265323 L25.0081002,20.7209999 L25.1191591,20.9323253 L25.3609418,20.8198184 L25.5083337,20.9233247 L25.5152632,20.2351578 L25.6682736,20.1485275 L25.6201418,20.0667725 L25.9928355,19.4136702 L26.0042598,19.4136702 L25.967365,19.3351029 L25.5070227,19.6066195 L25.1912632,19.4281086 L25.1442551,19.5533662 L25.2079314,19.5783053 L25.2716077,20.0112691 Z M24.6955244,18.9409539 L24.9878736,18.892951 L25.0066019,18.9160149 L25.0045418,18.7549426 L25.1500609,18.6686873 L24.9972378,18.6563116 L24.9923684,18.6448734 L24.9245719,18.6724375 L24.8741927,18.6328726 L24.6955244,18.9409539 Z M28.606935,23.2557794 L28.6282853,23.9943869 L27.9997627,24.3823481 L27.3613142,24.0375146 L26.715187,24.3701598 L26.8225003,24.5569212 L26.5009349,25.1147677 L25.8579915,25.1153303 L25.7456216,24.9206934 L25.7255823,25.1370816 L25.5568401,25.2152739 L26.1527754,25.5721081 L26.1411638,26.3995961 L25.4195615,26.8029331 L24.7093834,26.3787823 L24.7211823,25.5509193 L24.726988,25.5479191 L24.4983152,25.3866593 L24.3627221,25.6017349 L24.2784447,25.5989222 L24.469099,25.9013782 L24.2037186,26.4050339 L23.6356886,26.4267852 L23.3334134,25.9454434 L23.5937371,25.4513508 L23.3832308,25.0508263 L22.9816955,25.225587 L22.173381,24.6261129 L22.1840561,24.5312322 L21.769411,24.5301071 L21.4527151,23.9767609 L21.6961833,23.559923 L21.0345116,23.1331469 L21.0401301,23.0230777 L20.6447752,23.2670301 L19.9949023,22.9158212 L19.973552,22.1766511 L20.6026364,21.7888775 L21.2407104,22.1338985 L21.893018,21.7988156 L21.785892,21.6118667 L22.1068954,21.0620832 L22.7425348,21.0648959 L22.855092,21.2625329 L22.8758804,21.034144 L23.0448099,20.9559517 L22.4483128,20.5998675 L22.4614226,19.7720046 L23.1833995,19.3686675 L23.8928285,19.7928183 L23.8808423,20.6210563 L23.8754111,20.6240565 L23.9300978,20.6624963 L23.9134296,20.6219939 L24.1082042,20.369041 L24.2031568,20.3823543 L24.1333001,20.2704099 L24.3977441,19.7673168 L24.4702227,19.7641291 L24.4587984,19.6883745 L24.5812817,19.5914311 L24.402988,19.3741053 L24.5318389,19.0300218 L23.9038782,19.0294593 L23.5332446,18.3861076 L23.9042527,17.7436934 L24.6455198,17.7436934 L24.6503892,17.753069 L24.7054505,17.6737517 L24.2372424,17.4086105 L24.2318111,16.8378257 L24.7228678,16.547183 L24.8700724,16.6304381 L24.8047106,16.4914921 L24.8869279,16.3731724 L24.305788,16.3731724 L23.9353418,15.7301957 L24.305788,15.0870315 L25.0470551,15.0874065 L25.4182505,15.7303832 L25.412632,15.7391962 L25.5090829,15.7472592 L25.5060863,15.4761177 L25.4890436,15.4834306 L25.2498829,15.2981694 L25.2901488,14.9981511 L25.5231291,14.9021452 L25.2716077,14.8023891 L25.208306,14.3694252 L25.283032,14.3103591 L25.4028933,13.9953399 L25.7946898,13.9323361 L26.0447129,14.2406049 L25.9795384,14.4112403 L26.0207407,14.6923199 L25.6778251,14.963649 L25.6690228,14.9604613 L25.7798944,15.0459665 L25.9948956,14.9184587 L26.4921326,15.1993508 L26.4936309,15.3675486 L26.5810922,15.2424785 L26.7239893,15.2548542 L26.4337002,14.750261 L26.7226783,14.2490429 L26.7142505,14.1612876 L27.1069835,13.8779578 L26.9110852,13.6246298 L26.5940147,13.7881398 L26.2102713,13.5408122 L26.0377835,13.8547064 L25.5341788,13.865582 L25.4534597,13.7313238 L25.3489557,13.8665196 L25.08601,13.8310799 L24.5917695,14.1237853 L24.0222412,13.8018281 L24.0156863,13.1459132 L24.5786597,12.8121428 L24.5889603,12.8185182 L24.5932678,12.7613272 L24.1362967,12.7707028 L23.8754111,12.3390515 L24.1181302,11.8972746 L24.2454828,11.8950244 L24.1610181,11.8363333 L24.1694458,11.7255141 L23.7514296,11.9732167 L23.1809649,11.6514471 L23.1740354,10.9959071 L23.7381325,10.6628868 L24.3080354,10.9842814 L24.3080354,10.9959071 L24.3602874,10.9711556 L24.1233741,10.5796317 L24.3660932,10.1378548 L24.8696979,10.1269791 L24.9064054,10.1881079 L24.9116493,10.1299793 L25.0071638,10.0847891 L24.5500054,9.82021044 L24.5505672,9.20367286 L24.2398643,8.77952201 L24.2651476,8.72345609 L24.2542851,8.71895581 L24.1889233,8.23630139 L24.5741649,7.93759569 L25.0240193,8.12285698 L25.0401256,8.23630139 L25.3489557,8.6580146 L25.2257233,8.9368441 L25.6527291,9.18417167 L25.6521673,9.35499458 L25.9915245,9.21923631 L26.3054112,9.46693891 L26.5151685,9.46206361 L26.7766159,9.89371492 L26.7157488,10.0050967 L26.8065812,9.96103153 L26.8990991,10.0244104 L26.8938552,9.53763072 L27.4572032,9.20367286 L28.0276679,9.52619252 L28.0345974,10.1809824 L27.471624,10.5149403 L27.4609488,10.5089399 L27.4562668,10.5665059 L27.9137997,10.5569429 L28.1748726,10.9887817 L27.9317789,11.4303711 L27.8053627,11.4329963 L27.8885165,11.4905623 L27.8799015,11.601569 L28.2988541,11.3542415 L28.8689443,11.6760111 L28.8758737,12.331551 L28.3123385,12.6645713 L27.8147269,12.3840542 L27.7283893,12.4194939 L27.926535,12.7482014 L27.7398136,13.0877846 L27.8051754,13.1723523 L27.8718483,12.9981542 L28.2636448,12.9351503 L28.513668,13.2432316 L28.3722691,13.6146917 L27.9808471,13.6773206 L27.8624841,13.5319992 L27.7237072,13.8715824 L27.3847246,13.9175227 L27.7019824,14.0605939 L27.7409373,14.4453674 L27.916609,14.7508235 L27.545039,15.3932377 L27.5356749,15.3938002 L27.5768772,15.480993 L27.6384934,15.4448033 L27.6899962,15.3791743 L27.7373789,15.3862997 L28.0396541,15.2074138 L28.5372656,15.4875559 L28.542135,16.0587157 L28.3966159,16.145346 L28.5488772,16.1579093 L28.6101188,16.2884172 L28.901157,15.784199 L29.6424241,15.7843865 L30.0128703,16.4271757 L29.6422368,17.0699649 L28.9007824,17.0697773 L28.8957258,17.0611518 L28.8404772,17.1408442 L29.3088726,17.4052353 L29.3146784,17.9762076 L28.8230599,18.2666628 L28.6766044,18.1837828 L28.7415917,18.3219787 L28.659187,18.4406734 L29.2407015,18.4406734 L29.611335,19.0840251 L29.2407015,19.7266268 L28.4992471,19.7262518 L28.1284263,19.0832751 L28.1338575,19.074087 L28.0370321,19.0658365 L28.0430252,19.6045569 L27.5515939,19.8953871 L27.5274344,19.8815112 L27.2789095,20.0688352 L27.0787037,19.9838925 L27.1227153,20.0594596 L26.9625881,20.3394141 L26.9550968,21.0868347 L26.6904656,21.2364688 L26.747587,21.3092233 L26.6144286,21.641681 L26.8329881,21.6422436 L27.1491222,22.1950273 L26.9064032,22.6116777 L27.5673257,23.0386412 L27.5618945,23.1483354 L27.9578113,22.9045705 L28.606935,23.2557794 Z M18.2692745,21.7821271 L17.8600606,21.7228735 L17.6040444,22.0483933 L17.7576167,22.4331668 L18.1673924,22.4920454 L18.4224722,22.166713 L18.2692745,21.7821271 Z M19.2268537,21.780252 L18.7839288,22.1370862 L18.8713901,22.699058 L19.4006526,22.9041955 L19.8428283,22.5479238 L19.7559289,21.985202 L19.2268537,21.780252 Z M21.8933925,24.7269941 L21.2352792,25.0491387 L21.1849,25.7806208 L21.791885,26.1899583 L22.4501856,25.8681887 L22.5011267,25.1365191 L21.8933925,24.7269941 Z M22.7384145,19.310914 L22.8097695,19.4029821 L23.373492,19.3262899 L23.5873695,18.7999453 L23.2403336,18.3502929 L23.0648492,18.3742944 L22.5346504,18.1453429 L22.0456538,18.5094901 L22.1170087,19.1157146 L22.6762365,19.3577918 L22.7384145,19.310914 Z M26.4797719,28.6156061 L26.2235684,28.9403759 L26.3771407,29.3253369 L26.7869164,29.3845905 L27.0423708,29.0590707 L26.8893604,28.6741097 L26.4797719,28.6156061 Z M26.5559962,27.661923 L26.0675615,28.0262577 L25.5073973,27.7849305 L25.4367915,27.1788936 L25.9261626,26.8139963 L26.4855777,27.0560736 L26.5559962,27.661923 Z" id="Fill-12" fill="#FFFFFF" mask="url(#mask-2)"></path>
                </g>
                <polygon id="Fill-15" fill="#FFFFFF" points="17.5375027 44.5086062 16.8915628 44.1362085 16.2444991 44.5108563 16.2454356 45.2582769 16.8926865 45.6317996 17.5375027 45.2582769"></polygon>
            </g>
        </g>
    </g>
</svg>